<?xml version="1.0" encoding="UTF-8" standalone="no"?>
<!DOCTYPE svg PUBLIC "-//W3C//DTD SVG 1.1//EN" "http://www.w3.org/Graphics/SVG/1.1/DTD/svg11.dtd">
<svg xmlns="http://www.w3.org/2000/svg" version="1.1" viewBox="250.00 250.00 534.00 534.00">
<path fill="#000000" d="
  M 624.65 494.94
  L 622.86 500.47
  L 621.68 503.84
  L 620.15 507.18
  L 618.26 510.50
  L 616.02 513.81
  L 612.82 518.72
  L 611.50 520.30
  L 609.72 521.81
  L 605.76 524.60
  L 603.16 526.44
  L 600.46 528.08
  L 597.22 529.75
  L 593.88 531.15
  L 590.44 532.29
  L 586.93 533.18
  L 583.30 533.80
  L 579.62 534.16
  L 575.89 534.26
  L 572.14 534.09
  L 566.59 533.20
  L 562.56 532.47
  L 558.80 531.09
  L 557.02 529.90
  L 555.13 528.95
  L 555.13 528.95
  L 552.67 528.13
  L 547.79 524.78
  L 547.79 524.78
  L 543.22 520.89
  L 539.02 516.50
  L 537.46 513.74
  L 534.39 508.84
  L 531.96 503.66
  L 530.14 498.16
  L 529.00 492.49
  L 528.55 486.78
  L 528.78 481.04
  L 529.70 475.44
  L 531.31 469.94
  L 531.61 469.12
  L 533.94 463.25
  L 537.80 456.96
  L 543.01 451.21
  L 543.53 450.89
  L 543.78 450.28
  L 546.45 448.03
  L 551.48 445.04
  L 554.17 443.39
  L 556.56 442.21
  L 563.06 439.79
  L 568.85 438.32
  L 571.47 437.96
  L 574.52 437.78
  L 581.91 437.90
  L 584.51 438.20
  L 587.49 438.84
  L 593.18 439.95
  L 597.41 441.73
  L 601.43 443.86
  L 604.94 446.09
  L 605.88 447.18
  L 607.24 447.83
  L 608.78 448.96
  L 609.47 449.08
  L 609.97 448.58
  L 610.01 448.34
  L 610.01 348.78
  L 609.89 348.36
  L 609.56 348.11
  L 608.52 348.03
  L 597.27 351.89
  L 596.86 352.30
  L 596.46 352.32
  L 594.29 352.71
  L 592.22 353.36
  L 589.19 354.93
  L 582.27 357.05
  L 575.52 359.89
  L 575.23 360.13
  L 575.17 360.03
  L 571.04 361.14
  L 567.07 362.62
  L 567.07 362.62
  L 564.21 363.97
  L 554.08 367.72
  L 550.18 369.04
  L 544.71 370.65
  L 539.50 372.92
  L 539.38 373.05
  L 538.51 373.31
  L 536.09 373.81
  L 533.81 374.61
  L 531.24 375.97
  L 529.70 376.71
  L 527.30 377.35
  L 516.78 381.16
  L 516.35 381.35
  L 516.24 381.33
  L 506.51 384.90
  L 505.96 385.27
  L 505.27 385.35
  L 498.16 387.59
  L 497.42 388.12
  L 497.14 388.98
  L 497.14 530.02
  L 497.15 530.04
  L 497.15 530.04
  L 497.41 531.65
  L 497.00 533.55
  L 493.77 545.03
  L 493.30 545.71
  L 493.26 546.15
  L 493.43 546.30
  L 489.64 553.50
  L 489.22 553.73
  L 489.17 554.24
  L 486.87 557.43
  L 484.38 560.38
  L 481.71 563.09
  L 478.84 565.57
  L 478.84 565.57
  L 478.84 565.57
  L 478.84 565.57
  L 478.84 565.57
  L 476.17 567.56
  L 473.34 569.36
  L 470.37 570.98
  L 467.26 572.42
  L 463.59 573.26
  L 459.91 574.79
  L 458.95 575.08
  L 451.32 575.96
  L 446.56 575.96
  L 438.06 575.12
  L 434.33 574.07
  L 431.98 572.82
  L 429.22 572.13
  L 425.03 570.05
  L 424.73 569.57
  L 423.75 569.25
  L 421.67 567.62
  L 420.26 566.97
  L 419.38 565.95
  L 417.69 565.02
  L 412.57 560.01
  L 411.82 558.67
  L 410.87 557.51
  L 409.71 556.50
  L 409.54 556.23
  L 409.66 556.22
  L 406.94 551.91
  L 404.73 547.62
  L 402.94 543.17
  L 401.63 538.72
  L 401.34 537.44
  L 400.05 531.75
  L 400.09 522.48
  L 401.98 512.92
  L 401.68 512.56
  L 401.97 512.67
  L 402.56 511.64
  L 403.16 509.98
  L 404.01 507.75
  L 405.36 505.03
  L 409.50 498.11
  L 409.75 497.42
  L 410.17 496.95
  L 410.17 496.95
  L 410.52 496.76
  L 417.19 489.94
  L 418.68 488.53
  L 419.26 488.19
  L 420.57 487.68
  L 421.77 487.00
  L 423.72 485.22
  L 430.76 481.65
  L 431.15 481.68
  L 432.16 481.45
  L 433.18 480.75
  L 433.47 480.65
  L 440.82 478.80
  L 442.40 478.70
  L 455.86 478.72
  L 461.42 479.69
  L 461.42 479.69
  L 467.04 481.43
  L 472.47 483.93
  L 476.68 486.70
  L 481.10 490.55
  L 481.45 490.83
  L 481.54 490.87
  L 481.86 490.81
  L 482.01 490.52
  L 482.01 319.20
  L 482.27 318.39
  L 482.96 317.88
  L 492.54 314.70
  L 502.64 311.04
  L 503.13 310.72
  L 503.49 310.70
  L 503.49 310.70
  L 503.52 310.72
  L 517.22 305.82
  L 517.33 305.69
  L 517.51 305.71
  L 539.00 297.85
  L 539.37 297.65
  L 539.53 297.68
  L 552.47 293.12
  L 553.25 292.66
  L 553.58 292.71
  L 591.68 279.02
  L 596.19 277.42
  L 605.69 274.02
  L 610.20 272.43
  L 612.46 271.89
  L 616.01 270.69
  L 619.44 269.06
  L 620.81 268.54
  L 620.81 268.54
  L 622.52 268.15
  L 624.31 268.00
  L 624.79 268.19
  L 624.99 268.67
  L 624.99 268.67
  L 624.99 268.67
  L 624.65 494.94
  Z
  M 585.50 296.87
  L 538.23 314.05
  L 531.03 316.25
  L 497.58 328.62
  L 497.24 328.86
  L 497.13 329.26
  L 497.13 342.49
  L 497.28 342.80
  L 497.61 342.89
  L 497.68 342.87
  L 538.93 327.72
  L 585.70 310.72
  L 608.97 302.42
  L 609.94 301.68
  L 610.31 300.51
  L 610.31 288.68
  L 610.15 288.23
  L 609.68 288.23
  L 585.50 296.87
  Z
  M 586.21 326.34
  L 538.93 343.48
  L 538.63 343.45
  L 538.57 343.43
  L 538.32 343.37
  L 538.06 343.41
  L 497.82 358.14
  L 497.42 358.43
  L 497.30 358.87
  L 497.30 371.98
  L 497.31 372.06
  L 497.54 372.40
  L 497.95 372.43
  L 538.92 357.41
  L 585.65 340.56
  L 609.72 331.77
  L 610.10 331.50
  L 610.22 331.06
  L 610.22 318.18
  L 610.08 317.78
  L 609.65 317.79
  L 586.21 326.34
  Z
  M 610.83 485.84
  L 610.67 482.52
  L 610.18 479.24
  L 609.37 476.02
  L 608.25 472.89
  L 606.84 469.89
  L 605.13 467.05
  L 603.15 464.38
  L 600.92 461.92
  L 598.46 459.69
  L 595.79 457.71
  L 592.95 456.00
  L 589.95 454.59
  L 586.82 453.47
  L 583.60 452.66
  L 580.32 452.17
  L 577.00 452.01
  L 573.68 452.17
  L 570.40 452.66
  L 567.18 453.47
  L 564.05 454.59
  L 561.05 456.00
  L 558.21 457.71
  L 555.54 459.69
  L 553.08 461.92
  L 550.85 464.38
  L 548.87 467.05
  L 547.16 469.89
  L 545.75 472.89
  L 544.63 476.02
  L 543.82 479.24
  L 543.33 482.52
  L 543.17 485.84
  L 543.33 489.16
  L 543.82 492.44
  L 544.63 495.66
  L 545.75 498.79
  L 547.16 501.79
  L 548.87 504.63
  L 550.85 507.30
  L 553.08 509.76
  L 555.54 511.99
  L 558.21 513.97
  L 561.05 515.68
  L 564.05 517.09
  L 567.18 518.21
  L 570.40 519.02
  L 573.68 519.51
  L 577.00 519.67
  L 580.32 519.51
  L 583.60 519.02
  L 586.82 518.21
  L 589.95 517.09
  L 592.95 515.68
  L 595.79 513.97
  L 598.46 511.99
  L 600.92 509.76
  L 603.15 507.30
  L 605.13 504.63
  L 606.84 501.79
  L 608.25 498.79
  L 609.37 495.66
  L 610.18 492.44
  L 610.67 489.16
  L 610.83 485.84
  Z
  M 433.5959 557.4646
  L 436.6409 558.7997
  L 439.8029 559.8287
  L 443.0513 560.5415
  L 446.3548 560.9315
  L 449.6817 560.9948
  L 453.0000 560.7307
  L 456.2776 560.1420
  L 459.4830 559.2341
  L 462.5853 558.0159
  L 465.5546 556.4992
  L 468.3624 554.6984
  L 470.9817 552.6309
  L 473.3871 550.3167
  L 475.5555 547.7781
  L 477.4661 545.0395
  L 479.1004 542.1272
  L 480.4427 539.0693
  L 481.4801 535.8953
  L 482.2025 532.6357
  L 482.6031 529.3220
  L 482.6779 525.9860
  L 482.4263 522.6598
  L 481.8507 519.3755
  L 480.9565 516.1648
  L 479.7525 513.0585
  L 478.2502 510.0866
  L 476.4641 507.2776
  L 474.4114 504.6587
  L 472.1118 502.2550
  L 469.5876 500.0898
  L 466.8629 498.1838
  L 463.9641 496.5554
  L 463.9641 496.5554
  L 460.9191 495.2203
  L 457.7571 494.1913
  L 454.5087 493.4785
  L 451.2052 493.0885
  L 447.8783 493.0252
  L 444.5600 493.2893
  L 441.2824 493.8780
  L 438.0770 494.7859
  L 434.9747 496.0041
  L 432.0054 497.5208
  L 429.1976 499.3216
  L 426.5783 501.3891
  L 424.1729 503.7033
  L 422.0045 506.2419
  L 420.0939 508.9805
  L 418.4596 511.8928
  L 417.1173 514.9507
  L 416.0799 518.1247
  L 415.3575 521.3843
  L 414.9569 524.6980
  L 414.8821 528.0340
  L 415.1337 531.3602
  L 415.7093 534.6445
  L 416.6035 537.8552
  L 417.8075 540.9615
  L 419.3098 543.9334
  L 421.0959 546.7424
  L 423.1486 549.3613
  L 425.4482 551.7650
  L 427.9724 553.9302
  L 430.6971 555.8362
  L 433.5959 557.4646
  Z"
/>
<path fill="#689e7f" d="
  M 619.44 269.06
  L 616.01 270.69
  L 612.46 271.89
  L 610.20 272.43
  L 619.44 269.06
  Z"
/>
<path fill="#689e7f" d="
  M 605.69 274.02
  L 596.19 277.42
  L 605.69 274.02
  Z"
/>
<path fill="#689e7f" d="
  M 591.68 279.02
  L 553.58 292.71
  L 591.68 279.02
  Z"
/>
<path fill="#df7776" d="
  M 585.70 310.72
  L 585.34 306.53
  L 585.24 302.34
  L 585.24 302.34
  L 585.50 296.87
  L 609.68 288.23
  L 610.15 288.23
  L 610.31 288.68
  L 610.31 300.51
  L 609.94 301.68
  L 608.97 302.42
  L 585.70 310.72
  Z"
/>
<path fill="#689e7f" d="
  M 552.47 293.12
  L 539.53 297.68
  L 552.47 293.12
  Z"
/>
<path fill="#d0af80" d="
  M 585.50 296.87
  L 585.24 302.34
  L 585.24 302.34
  L 585.34 306.53
  L 585.70 310.72
  L 538.93 327.72
  L 538.23 314.05
  L 585.50 296.87
  Z"
/>
<path fill="#689e7f" d="
  M 539.00 297.85
  L 517.51 305.71
  L 539.00 297.85
  Z"
/>
<path fill="#689e7f" d="
  M 517.22 305.82
  L 503.52 310.72
  L 517.22 305.82
  Z"
/>
<path fill="#689e7f" d="
  M 502.64 311.04
  L 492.54 314.70
  L 502.64 311.04
  Z"
/>
<path fill="#689e7f" d="
  M 538.23 314.05
  L 538.93 327.72
  L 497.68 342.87
  L 497.61 342.89
  L 497.28 342.80
  L 497.13 342.49
  L 497.13 329.26
  L 497.24 328.86
  L 497.58 328.62
  L 531.03 316.25
  L 538.23 314.05
  Z"
/>
<path fill="#df7776" d="
  M 585.65 340.56
  L 585.16 336.81
  L 585.10 333.19
  L 585.44 329.70
  L 586.21 326.34
  L 609.65 317.79
  L 610.08 317.78
  L 610.22 318.18
  L 610.22 331.06
  L 610.10 331.50
  L 609.72 331.77
  L 585.65 340.56
  Z"
/>
<path fill="#d0af80" d="
  M 586.21 326.34
  L 585.44 329.70
  L 585.10 333.19
  L 585.16 336.81
  L 585.65 340.56
  L 538.92 357.41
  L 538.93 343.48
  L 586.21 326.34
  Z"
/>
<path fill="#689e7f" d="
  M 538.93 343.48
  L 538.92 357.41
  L 497.95 372.43
  L 497.54 372.40
  L 497.31 372.06
  L 497.30 371.98
  L 497.30 358.87
  L 497.42 358.43
  L 497.82 358.14
  L 538.06 343.41
  L 538.32 343.37
  L 538.57 343.43
  L 538.63 343.45
  L 538.93 343.48
  Z"
/>
<path fill="#689e7f" d="
  M 608.52 348.03
  L 597.27 351.89
  L 608.52 348.03
  Z"
/>
<path fill="#689e7f" d="
  M 596.46 352.32
  L 589.19 354.93
  L 592.22 353.36
  L 594.29 352.71
  L 596.46 352.32
  Z"
/>
<path fill="#689e7f" d="
  M 589.19 354.93
  L 575.52 359.89
  L 582.27 357.05
  L 589.19 354.93
  Z"
/>
<path fill="#689e7f" d="
  M 575.17 360.03
  L 564.21 363.97
  L 567.07 362.62
  L 571.04 361.14
  L 575.17 360.03
  Z"
/>
<path fill="#689e7f" d="
  M 564.21 363.97
  L 554.08 367.72
  L 564.21 363.97
  Z"
/>
<path fill="#689e7f" d="
  M 550.18 369.04
  L 539.50 372.92
  L 544.71 370.65
  L 550.18 369.04
  Z"
/>
<path fill="#689e7f" d="
  M 538.51 373.31
  L 531.24 375.97
  L 533.81 374.61
  L 536.09 373.81
  L 538.51 373.31
  Z"
/>
<path fill="#689e7f" d="
  M 527.30 377.35
  L 516.78 381.16
  L 527.30 377.35
  Z"
/>
<path fill="#689e7f" d="
  M 516.24 381.33
  L 506.51 384.90
  L 516.24 381.33
  Z"
/>
<path fill="#d0af80" d="
  M 505.27 385.35
  L 498.73 388.02
  L 498.18 388.46
  L 497.97 389.14
  L 497.94 526.25
  L 497.76 528.12
  L 497.22 529.83
  L 497.14 530.02
  L 497.14 388.98
  L 497.42 388.12
  L 498.16 387.59
  L 505.27 385.35
  Z"
/>
<path fill="#689e7f" d="
  M 593.18 439.95
  L 587.49 438.84
  L 584.51 438.20
  L 581.91 437.90
  L 574.52 437.78
  L 571.47 437.96
  L 568.85 438.32
  L 563.06 439.79
  L 556.56 442.21
  L 554.17 443.39
  L 551.48 445.04
  L 546.45 448.03
  L 551.49 444.39
  L 556.82 441.47
  L 562.47 439.25
  L 568.32 437.79
  L 571.39 437.34
  L 574.50 437.09
  L 577.63 437.05
  L 580.78 437.22
  L 583.88 437.60
  L 586.99 438.17
  L 590.09 438.96
  L 593.18 439.95
  Z"
/>
<path fill="#689e7f" d="
  M 607.24 447.83
  L 605.88 447.18
  L 604.94 446.09
  L 605.20 446.18
  L 606.29 446.81
  L 607.24 447.83
  Z"
/>
<path fill="#689e7f" d="
  M 543.78 450.28
  L 543.53 450.89
  L 543.01 451.21
  L 543.22 450.70
  L 543.78 450.28
  Z"
/>
<path fill="#689e7f" d="
  M 610.83 485.84
  L 610.67 489.16
  L 610.18 492.44
  L 609.37 495.66
  L 608.25 498.79
  L 606.84 501.79
  L 605.13 504.63
  L 603.15 507.30
  L 600.92 509.76
  L 598.46 511.99
  L 595.79 513.97
  L 592.95 515.68
  L 589.95 517.09
  L 586.82 518.21
  L 583.60 519.02
  L 580.32 519.51
  L 577.00 519.67
  L 573.68 519.51
  L 570.40 519.02
  L 567.18 518.21
  L 564.05 517.09
  L 561.05 515.68
  L 558.21 513.97
  L 555.54 511.99
  L 553.08 509.76
  L 550.85 507.30
  L 548.87 504.63
  L 547.16 501.79
  L 545.75 498.79
  L 544.63 495.66
  L 543.82 492.44
  L 543.33 489.16
  L 543.17 485.84
  L 543.33 482.52
  L 543.82 479.24
  L 544.63 476.02
  L 545.75 472.89
  L 547.16 469.89
  L 548.87 467.05
  L 550.85 464.38
  L 553.08 461.92
  L 555.54 459.69
  L 558.21 457.71
  L 561.05 456.00
  L 564.05 454.59
  L 567.18 453.47
  L 570.40 452.66
  L 573.68 452.17
  L 577.00 452.01
  L 580.32 452.17
  L 583.60 452.66
  L 586.82 453.47
  L 589.95 454.59
  L 592.95 456.00
  L 595.79 457.71
  L 598.46 459.69
  L 600.92 461.92
  L 603.15 464.38
  L 605.13 467.05
  L 606.84 469.89
  L 608.25 472.89
  L 609.37 476.02
  L 610.18 479.24
  L 610.67 482.52
  L 610.83 485.84
  Z
  M 567.0321 505.5141
  L 568.9682 506.3823
  L 570.9812 507.0542
  L 573.0520 507.5235
  L 575.1605 507.7856
  L 577.2864 507.8380
  L 579.4092 507.6802
  L 581.5086 507.3136
  L 583.5643 506.7420
  L 585.5564 505.9706
  L 587.4659 505.0070
  L 589.2743 503.8605
  L 590.9642 502.5420
  L 592.5193 501.0644
  L 593.9246 499.4417
  L 595.1667 497.6898
  L 596.2336 495.8253
  L 597.1149 493.8663
  L 597.8022 491.8316
  L 598.2889 489.7409
  L 598.5703 487.6142
  L 598.6436 485.4721
  L 598.5082 483.3352
  L 598.1654 481.2240
  L 597.6185 479.1589
  L 596.8727 477.1598
  L 595.9353 475.2460
  L 594.8152 473.4358
  L 593.5232 471.7467
  L 592.0718 470.1949
  L 590.4750 468.7955
  L 588.7482 467.5619
  L 586.9079 466.5059
  L 586.9079 466.5059
  L 584.9718 465.6377
  L 582.9588 464.9658
  L 580.8880 464.4965
  L 578.7795 464.2344
  L 576.6536 464.1820
  L 574.5308 464.3398
  L 572.4314 464.7064
  L 570.3757 465.2780
  L 568.3836 466.0494
  L 566.4741 467.0130
  L 564.6657 468.1595
  L 562.9758 469.4780
  L 561.4207 470.9556
  L 560.0154 472.5783
  L 558.7733 474.3302
  L 557.7064 476.1947
  L 556.8251 478.1537
  L 556.1378 480.1884
  L 555.6511 482.2791
  L 555.3697 484.4058
  L 555.2964 486.5479
  L 555.4318 488.6848
  L 555.7746 490.7960
  L 556.3215 492.8611
  L 557.0673 494.8602
  L 558.0047 496.7740
  L 559.1248 498.5842
  L 560.4168 500.2733
  L 561.8682 501.8251
  L 563.4650 503.2245
  L 565.1918 504.4581
  L 567.0321 505.5141
  Z"
/>
<path fill="#689e7f" d="
  M 537.80 456.96
  L 533.94 463.25
  L 537.80 456.96
  Z"
/>
<path fill="#689e7f" d="
  M 533.94 463.25
  L 531.61 469.12
  L 531.31 469.94
  L 529.70 475.44
  L 528.78 481.04
  L 528.55 486.78
  L 529.00 492.49
  L 530.14 498.16
  L 531.96 503.66
  L 534.39 508.84
  L 537.46 513.74
  L 539.02 516.50
  L 536.29 512.85
  L 533.94 509.06
  L 531.99 505.15
  L 530.43 501.10
  L 530.43 501.10
  L 530.43 501.10
  L 529.05 495.91
  L 528.26 490.52
  L 528.07 484.94
  L 528.49 479.15
  L 528.57 479.15
  L 528.63 478.30
  L 529.67 473.28
  L 531.30 468.51
  L 532.52 465.84
  L 533.94 463.25
  Z"
/>
<path fill="#000000" d="
  M 567.0321 505.5141
  L 565.1918 504.4581
  L 563.4650 503.2245
  L 561.8682 501.8251
  L 560.4168 500.2733
  L 559.1248 498.5842
  L 558.0047 496.7740
  L 557.0673 494.8602
  L 556.3215 492.8611
  L 555.7746 490.7960
  L 555.4318 488.6848
  L 555.2964 486.5479
  L 555.3697 484.4058
  L 555.6511 482.2791
  L 556.1378 480.1884
  L 556.8251 478.1537
  L 557.7064 476.1947
  L 558.7733 474.3302
  L 560.0154 472.5783
  L 561.4207 470.9556
  L 562.9758 469.4780
  L 564.6657 468.1595
  L 566.4741 467.0130
  L 568.3836 466.0494
  L 570.3757 465.2780
  L 572.4314 464.7064
  L 574.5308 464.3398
  L 576.6536 464.1820
  L 578.7795 464.2344
  L 580.8880 464.4965
  L 582.9588 464.9658
  L 584.9718 465.6377
  L 586.9079 466.5059
  L 586.9079 466.5059
  L 588.7482 467.5619
  L 590.4750 468.7955
  L 592.0718 470.1949
  L 593.5232 471.7467
  L 594.8152 473.4358
  L 595.9353 475.2460
  L 596.8727 477.1598
  L 597.6185 479.1589
  L 598.1654 481.2240
  L 598.5082 483.3352
  L 598.6436 485.4721
  L 598.5703 487.6142
  L 598.2889 489.7409
  L 597.8022 491.8316
  L 597.1149 493.8663
  L 596.2336 495.8253
  L 595.1667 497.6898
  L 593.9246 499.4417
  L 592.5193 501.0644
  L 590.9642 502.5420
  L 589.2743 503.8605
  L 587.4659 505.0070
  L 585.5564 505.9706
  L 583.5643 506.7420
  L 581.5086 507.3136
  L 579.4092 507.6802
  L 577.2864 507.8380
  L 575.1605 507.7856
  L 573.0520 507.5235
  L 570.9812 507.0542
  L 568.9682 506.3823
  L 567.0321 505.5141
  Z
  M 573.45 480.99
  L 573.02 481.38
  L 572.13 481.81
  L 572.13 481.81
  L 571.73 482.53
  L 571.64 483.56
  L 571.06 484.96
  L 571.04 485.90
  L 571.28 486.89
  L 571.52 488.24
  L 572.13 489.04
  L 572.13 489.04
  L 572.51 489.22
  L 574.00 490.48
  L 575.46 491.10
  L 577.27 491.47
  L 578.86 491.23
  L 578.86 491.23
  L 579.73 490.77
  L 580.52 490.08
  L 582.12 488.29
  L 582.58 486.87
  L 582.78 485.56
  L 582.72 484.36
  L 582.41 483.27
  L 582.41 483.27
  L 582.41 483.27
  L 581.86 482.32
  L 581.07 481.48
  L 580.05 480.74
  L 578.78 480.10
  L 575.66 479.85
  L 575.24 479.69
  L 575.24 479.69
  L 574.39 479.97
  L 573.45 480.99
  Z"
/>
<path fill="#689e7f" d="
  M 455.86 478.72
  L 442.40 478.70
  L 445.83 478.08
  L 449.26 477.88
  L 452.56 478.10
  L 455.86 478.72
  Z"
/>
<path fill="#000000" d="
  M 528.63 478.30
  L 528.57 479.15
  L 528.49 479.15
  L 528.63 478.30
  Z"
/>
<path fill="#689e7f" d="
  M 440.82 478.80
  L 433.47 480.65
  L 440.82 478.80
  Z"
/>
<path fill="#689e7f" d="
  M 575.66 479.85
  L 574.55 480.71
  L 573.45 480.99
  L 574.39 479.97
  L 575.24 479.69
  L 575.66 479.85
  Z"
/>
<path fill="#689e7f" d="
  M 582.12 488.29
  L 581.95 484.06
  L 581.59 483.19
  L 578.78 480.10
  L 580.05 480.74
  L 581.07 481.48
  L 581.86 482.32
  L 582.41 483.27
  L 582.41 483.27
  L 582.41 483.27
  L 582.72 484.36
  L 582.78 485.56
  L 582.58 486.87
  L 582.12 488.29
  Z"
/>
<path fill="#689e7f" d="
  M 433.18 480.75
  L 432.16 481.45
  L 431.15 481.68
  L 431.15 481.68
  L 430.76 481.65
  L 433.18 480.75
  Z"
/>
<path fill="#689e7f" d="
  M 573.02 481.38
  L 571.64 483.56
  L 571.73 482.53
  L 572.13 481.81
  L 572.13 481.81
  L 573.02 481.38
  Z"
/>
<path fill="#689e7f" d="
  M 423.72 485.22
  L 421.77 487.00
  L 420.57 487.68
  L 419.26 488.19
  L 421.14 486.57
  L 423.72 485.22
  Z"
/>
<path fill="#689e7f" d="
  M 572.51 489.22
  L 572.13 489.04
  L 572.13 489.04
  L 571.52 488.24
  L 571.28 486.89
  L 572.51 489.22
  Z"
/>
<path fill="#689e7f" d="
  M 417.19 489.94
  L 410.52 496.76
  L 412.03 494.49
  L 413.81 492.51
  L 413.81 492.51
  L 415.41 491.13
  L 417.19 489.94
  Z"
/>
<path fill="#689e7f" d="
  M 580.52 490.08
  L 579.73 490.77
  L 578.86 491.23
  L 578.86 491.23
  L 577.27 491.47
  L 575.46 491.10
  L 578.14 490.99
  L 578.58 490.88
  L 578.93 490.58
  L 579.53 490.11
  L 580.52 490.08
  Z"
/>
<path fill="#df7776" d="
  M 433.5959 557.4646
  L 430.6971 555.8362
  L 427.9724 553.9302
  L 425.4482 551.7650
  L 423.1486 549.3613
  L 421.0959 546.7424
  L 419.3098 543.9334
  L 417.8075 540.9615
  L 416.6035 537.8552
  L 415.7093 534.6445
  L 415.1337 531.3602
  L 414.8821 528.0340
  L 414.9569 524.6980
  L 415.3575 521.3843
  L 416.0799 518.1247
  L 417.1173 514.9507
  L 418.4596 511.8928
  L 420.0939 508.9805
  L 422.0045 506.2419
  L 424.1729 503.7033
  L 426.5783 501.3891
  L 429.1976 499.3216
  L 432.0054 497.5208
  L 434.9747 496.0041
  L 438.0770 494.7859
  L 441.2824 493.8780
  L 444.5600 493.2893
  L 447.8783 493.0252
  L 451.2052 493.0885
  L 454.5087 493.4785
  L 457.7571 494.1913
  L 460.9191 495.2203
  L 463.9641 496.5554
  L 463.9641 496.5554
  L 466.8629 498.1838
  L 469.5876 500.0898
  L 472.1118 502.2550
  L 474.4114 504.6587
  L 476.4641 507.2776
  L 478.2502 510.0866
  L 479.7525 513.0585
  L 480.9565 516.1648
  L 481.8507 519.3755
  L 482.4263 522.6598
  L 482.6779 525.9860
  L 482.6031 529.3220
  L 482.2025 532.6357
  L 481.4801 535.8953
  L 480.4427 539.0693
  L 479.1004 542.1272
  L 477.4661 545.0395
  L 475.5555 547.7781
  L 473.3871 550.3167
  L 470.9817 552.6309
  L 468.3624 554.6984
  L 465.5546 556.4992
  L 462.5853 558.0159
  L 459.4830 559.2341
  L 456.2776 560.1420
  L 453.0000 560.7307
  L 449.6817 560.9948
  L 446.3548 560.9315
  L 443.0513 560.5415
  L 439.8029 559.8287
  L 436.6409 558.7997
  L 433.5959 557.4646
  Z
  M 433.7041 542.9494
  L 435.3218 544.3193
  L 437.0676 545.5225
  L 438.9246 546.5473
  L 440.8750 547.3840
  L 442.9000 548.0245
  L 444.9801 548.4627
  L 447.0952 548.6942
  L 449.2250 548.7169
  L 451.3490 548.5305
  L 453.4467 548.1369
  L 455.4979 547.5398
  L 457.4829 546.7450
  L 459.3825 545.7602
  L 461.1785 544.5948
  L 462.8536 543.2600
  L 464.3915 541.7687
  L 465.7776 540.1353
  L 466.9984 538.3755
  L 468.0422 536.5062
  L 468.8990 534.5455
  L 469.5605 532.5122
  L 470.0203 530.4259
  L 470.2741 528.3068
  L 470.3192 526.1751
  L 470.1555 524.0515
  L 469.7843 521.9563
  L 469.2093 519.9099
  L 468.4360 517.9318
  L 467.4718 516.0411
  L 466.3261 514.2561
  L 465.0099 512.5939
  L 463.5359 511.0706
  L 463.5359 511.0706
  L 461.9182 509.7007
  L 460.1724 508.4975
  L 458.3154 507.4727
  L 456.3650 506.6360
  L 454.3400 505.9955
  L 452.2599 505.5573
  L 450.1448 505.3258
  L 448.0150 505.3031
  L 445.8910 505.4895
  L 443.7933 505.8831
  L 441.7421 506.4802
  L 439.7571 507.2750
  L 437.8575 508.2598
  L 436.0615 509.4252
  L 434.3864 510.7600
  L 432.8485 512.2513
  L 431.4624 513.8847
  L 430.2416 515.6445
  L 429.1978 517.5138
  L 428.3410 519.4745
  L 427.6795 521.5078
  L 427.2197 523.5941
  L 426.9659 525.7132
  L 426.9208 527.8449
  L 427.0845 529.9685
  L 427.4557 532.0637
  L 428.0307 534.1101
  L 428.8040 536.0882
  L 429.7682 537.9789
  L 430.9139 539.7639
  L 432.2301 541.4261
  L 433.7041 542.9494
  Z"
/>
<path fill="#689e7f" d="
  M 624.65 494.94
  L 623.95 498.39
  L 623.01 501.72
  L 621.83 504.93
  L 620.42 508.02
  L 620.42 508.02
  L 620.42 508.02
  L 618.84 510.86
  L 617.05 513.59
  L 615.04 516.21
  L 612.82 518.72
  L 616.02 513.81
  L 618.26 510.50
  L 620.15 507.18
  L 621.68 503.84
  L 622.86 500.47
  L 624.65 494.94
  Z"
/>
<path fill="#689e7f" d="
  M 409.50 498.11
  L 405.36 505.03
  L 404.01 507.75
  L 403.16 509.98
  L 402.56 511.64
  L 401.97 512.67
  L 403.74 507.47
  L 406.20 502.69
  L 406.20 502.69
  L 407.75 500.34
  L 409.50 498.11
  Z"
/>
<path fill="#000000" d="
  M 433.7041 542.9494
  L 432.2301 541.4261
  L 430.9139 539.7639
  L 429.7682 537.9789
  L 428.8040 536.0882
  L 428.0307 534.1101
  L 427.4557 532.0637
  L 427.0845 529.9685
  L 426.9208 527.8449
  L 426.9659 525.7132
  L 427.2197 523.5941
  L 427.6795 521.5078
  L 428.3410 519.4745
  L 429.1978 517.5138
  L 430.2416 515.6445
  L 431.4624 513.8847
  L 432.8485 512.2513
  L 434.3864 510.7600
  L 436.0615 509.4252
  L 437.8575 508.2598
  L 439.7571 507.2750
  L 441.7421 506.4802
  L 443.7933 505.8831
  L 445.8910 505.4895
  L 448.0150 505.3031
  L 450.1448 505.3258
  L 452.2599 505.5573
  L 454.3400 505.9955
  L 456.3650 506.6360
  L 458.3154 507.4727
  L 460.1724 508.4975
  L 461.9182 509.7007
  L 463.5359 511.0706
  L 463.5359 511.0706
  L 465.0099 512.5939
  L 466.3261 514.2561
  L 467.4718 516.0411
  L 468.4360 517.9318
  L 469.2093 519.9099
  L 469.7843 521.9563
  L 470.1555 524.0515
  L 470.3192 526.1751
  L 470.2741 528.3068
  L 470.0203 530.4259
  L 469.5605 532.5122
  L 468.8990 534.5455
  L 468.0422 536.5062
  L 466.9984 538.3755
  L 465.7776 540.1353
  L 464.3915 541.7687
  L 462.8536 543.2600
  L 461.1785 544.5948
  L 459.3825 545.7602
  L 457.4829 546.7450
  L 455.4979 547.5398
  L 453.4467 548.1369
  L 451.3490 548.5305
  L 449.2250 548.7169
  L 447.0952 548.6942
  L 444.9801 548.4627
  L 442.9000 548.0245
  L 440.8750 547.3840
  L 438.9246 546.5473
  L 437.0676 545.5225
  L 435.3218 544.3193
  L 433.7041 542.9494
  Z
  M 445.22 531.23
  L 445.79 532.04
  L 446.46 532.40
  L 446.46 532.40
  L 447.29 532.29
  L 447.34 532.24
  L 447.33 532.17
  L 447.28 532.09
  L 447.71 532.15
  L 447.51 532.25
  L 447.56 532.47
  L 447.78 532.64
  L 448.04 532.51
  L 448.33 532.81
  L 448.54 532.88
  L 448.67 532.85
  L 448.75 532.81
  L 448.95 532.57
  L 450.28 532.61
  L 451.23 532.20
  L 451.23 532.20
  L 451.33 532.11
  L 452.96 530.76
  L 453.74 529.74
  L 454.06 528.67
  L 454.07 528.42
  L 454.15 526.96
  L 454.01 525.66
  L 453.66 524.51
  L 453.09 523.52
  L 453.09 523.52
  L 453.09 523.52
  L 453.09 523.52
  L 451.61 522.18
  L 449.47 521.30
  L 448.43 521.14
  L 447.44 521.23
  L 446.52 521.57
  L 444.72 522.90
  L 444.14 523.63
  L 443.08 525.79
  L 442.89 526.81
  L 442.94 527.80
  L 442.94 527.80
  L 442.94 527.80
  L 443.19 528.71
  L 443.66 529.58
  L 445.22 531.23
  Z"
/>
<path fill="#689e7f" d="
  M 400.09 522.48
  L 400.19 519.66
  L 400.63 516.92
  L 400.63 516.92
  L 401.20 514.90
  L 401.98 512.92
  L 400.09 522.48
  Z"
/>
<path fill="#689e7f" d="
  M 609.72 521.81
  L 606.36 524.81
  L 603.13 527.28
  L 600.03 529.22
  L 597.06 530.63
  L 592.00 532.42
  L 587.10 533.74
  L 582.35 534.60
  L 577.76 535.00
  L 574.23 534.93
  L 570.53 534.49
  L 566.63 533.67
  L 562.56 532.47
  L 566.59 533.20
  L 572.14 534.09
  L 575.89 534.26
  L 579.62 534.16
  L 583.30 533.80
  L 586.93 533.18
  L 590.44 532.29
  L 593.88 531.15
  L 597.22 529.75
  L 600.46 528.08
  L 603.16 526.44
  L 605.76 524.60
  L 609.72 521.81
  Z"
/>
<path fill="#689e7f" d="
  M 558.80 531.09
  L 552.67 528.13
  L 555.13 528.95
  L 555.13 528.95
  L 557.02 529.90
  L 558.80 531.09
  Z"
/>
<path fill="#689e7f" d="
  M 452.96 530.76
  L 452.98 530.08
  L 453.34 529.22
  L 454.07 528.42
  L 454.06 528.67
  L 453.74 529.74
  L 452.96 530.76
  Z"
/>
<path fill="#689e7f" d="
  M 447.28 532.09
  L 447.33 532.17
  L 447.34 532.24
  L 447.29 532.29
  L 446.46 532.40
  L 446.46 532.40
  L 445.79 532.04
  L 445.22 531.23
  L 446.30 531.86
  L 447.28 532.09
  Z"
/>
<path fill="#689e7f" d="
  M 409.66 556.22
  L 407.46 553.62
  L 405.47 550.27
  L 403.37 545.65
  L 401.77 541.03
  L 400.66 536.39
  L 400.05 531.75
  L 401.34 537.44
  L 401.63 538.72
  L 402.94 543.17
  L 404.73 547.62
  L 406.94 551.91
  L 409.66 556.22
  Z"
/>
<path fill="#689e7f" d="
  M 451.33 532.11
  L 451.23 532.20
  L 451.23 532.20
  L 450.28 532.61
  L 448.95 532.57
  L 449.03 532.47
  L 449.03 532.47
  L 449.91 532.05
  L 451.33 532.11
  Z"
/>
<path fill="#d0af80" d="
  M 447.71 532.15
  L 448.04 532.51
  L 447.78 532.64
  L 447.56 532.47
  L 447.51 532.25
  L 447.71 532.15
  Z"
/>
<path fill="#d0af80" d="
  M 497.00 533.55
  L 496.15 538.75
  L 496.15 538.75
  L 495.18 542.05
  L 493.89 545.26
  L 493.77 545.03
  L 497.00 533.55
  Z"
/>
<path fill="#689e7f" d="
  M 493.77 545.03
  L 493.89 545.26
  L 493.70 545.83
  L 493.43 546.30
  L 493.26 546.15
  L 493.30 545.71
  L 493.77 545.03
  Z"
/>
<path fill="#689e7f" d="
  M 489.64 553.50
  L 489.17 554.24
  L 489.22 553.73
  L 489.64 553.50
  Z"
/>
<path fill="#689e7f" d="
  M 412.57 560.01
  L 410.89 558.28
  L 409.71 556.50
  L 410.87 557.51
  L 411.82 558.67
  L 412.57 560.01
  Z"
/>
<path fill="#689e7f" d="
  M 420.26 566.97
  L 419.75 566.73
  L 418.65 566.00
  L 417.69 565.02
  L 419.38 565.95
  L 420.26 566.97
  Z"
/>
<path fill="#689e7f" d="
  M 423.75 569.25
  L 422.26 568.55
  L 420.95 567.63
  L 420.95 567.63
  L 420.26 566.97
  L 421.67 567.62
  L 423.75 569.25
  Z"
/>
<path fill="#689e7f" d="
  M 425.03 570.05
  L 424.26 569.69
  L 423.75 569.25
  L 424.73 569.57
  L 425.03 570.05
  Z"
/>
<path fill="#689e7f" d="
  M 434.33 574.07
  L 432.37 573.57
  L 430.53 572.84
  L 430.53 572.84
  L 429.22 572.13
  L 431.98 572.82
  L 434.33 574.07
  Z"
/>
<path fill="#689e7f" d="
  M 467.26 572.42
  L 459.91 574.79
  L 463.59 573.26
  L 467.26 572.42
  Z"
/>
<path fill="#689e7f" d="
  M 446.56 575.96
  L 438.06 575.12
  L 446.56 575.96
  Z"
/>
<path fill="#689e7f" d="
  M 458.95 575.08
  L 451.32 575.96
  L 458.95 575.08
  Z"
/>
<path fill="#000000" d="
  M 529.56 675.44
  L 533.75 678.90
  L 535.61 680.82
  L 537.30 682.86
  L 537.30 682.86
  L 537.30 682.86
  L 537.30 682.86
  L 537.30 682.86
  L 539.04 685.33
  L 540.56 687.96
  L 541.87 690.76
  L 542.98 693.71
  L 543.38 695.58
  L 543.38 695.58
  L 543.87 698.97
  L 544.08 702.41
  L 544.02 705.90
  L 543.68 709.45
  L 543.09 711.70
  L 543.09 711.70
  L 543.09 711.70
  L 541.99 714.95
  L 540.62 718.11
  L 538.99 721.20
  L 537.09 724.21
  L 534.60 727.15
  L 534.60 727.15
  L 532.48 729.08
  L 530.14 730.78
  L 527.57 732.25
  L 524.78 733.51
  L 524.61 733.62
  L 524.61 733.62
  L 524.52 734.10
  L 524.80 734.92
  L 525.42 735.92
  L 526.20 736.69
  L 527.04 737.17
  L 528.22 738.70
  L 529.64 739.83
  L 531.44 740.61
  L 533.52 740.92
  L 539.30 740.94
  L 539.21 751.88
  L 539.21 751.89
  L 539.10 752.40
  L 538.80 752.82
  L 538.36 753.10
  L 537.85 753.19
  L 526.21 752.88
  L 522.06 751.02
  L 519.11 748.78
  L 516.47 746.25
  L 516.47 746.25
  L 516.47 746.25
  L 514.74 744.21
  L 513.18 742.02
  L 511.80 739.66
  L 510.58 737.15
  L 510.46 736.95
  L 509.93 736.62
  L 509.94 736.79
  L 509.80 736.34
  L 509.62 735.94
  L 509.29 735.69
  L 507.84 735.23
  L 506.47 735.08
  L 505.04 735.17
  L 501.63 734.07
  L 498.42 732.74
  L 495.39 731.15
  L 492.55 729.33
  L 489.68 726.48
  L 487.19 723.45
  L 485.09 720.26
  L 483.37 716.89
  L 482.01 713.29
  L 481.05 709.51
  L 480.97 709.38
  L 480.82 709.39
  L 480.58 709.40
  L 480.57 709.40
  L 480.68 708.77
  L 480.52 702.77
  L 480.61 699.06
  L 481.36 695.03
  L 482.74 690.83
  L 484.69 686.72
  L 487.06 682.20
  L 492.21 677.41
  L 499.97 672.70
  L 503.83 671.64
  L 507.93 670.96
  L 512.09 670.69
  L 516.08 670.84
  L 519.90 671.41
  L 523.39 672.35
  L 526.69 673.73
  L 529.56 675.44
  Z
  M 497.36 694.48
  L 496.79 696.29
  L 496.52 696.29
  L 496.27 696.41
  L 496.02 696.85
  L 495.48 699.38
  L 495.21 701.85
  L 495.21 704.29
  L 495.49 706.67
  L 495.49 706.67
  L 495.49 706.67
  L 496.21 709.56
  L 497.34 712.38
  L 497.63 712.67
  L 497.78 712.62
  L 499.32 715.42
  L 501.34 717.68
  L 503.87 719.42
  L 506.88 720.60
  L 510.18 721.22
  L 512.01 721.66
  L 513.83 721.76
  L 516.52 721.29
  L 519.19 720.07
  L 521.71 718.44
  L 523.85 716.61
  L 525.62 714.59
  L 527.01 712.37
  L 527.01 712.37
  L 528.18 709.49
  L 528.82 706.35
  L 528.94 702.92
  L 528.53 699.23
  L 528.23 696.73
  L 527.48 694.42
  L 526.58 692.74
  L 525.40 691.19
  L 523.95 689.75
  L 522.22 688.44
  L 520.26 687.28
  L 518.27 686.37
  L 516.24 685.71
  L 514.18 685.30
  L 514.18 685.30
  L 514.18 685.30
  L 511.65 685.13
  L 509.07 685.32
  L 507.38 685.39
  L 505.78 685.74
  L 505.78 685.74
  L 504.32 686.34
  L 502.95 687.20
  L 501.02 688.86
  L 499.41 690.74
  L 499.41 690.74
  L 498.27 692.53
  L 497.36 694.48
  Z"
/>
<path fill="#000000" d="
  M 361.11 673.50
  L 374.61 709.71
  L 375.16 710.81
  L 375.71 711.18
  L 375.71 711.18
  L 375.71 711.18
  L 376.25 710.81
  L 376.79 709.71
  L 390.00 673.75
  L 390.56 672.99
  L 391.43 672.65
  L 395.67 672.49
  L 400.00 672.71
  L 402.38 672.84
  L 404.50 672.73
  L 409.01 672.15
  L 409.81 672.14
  L 410.03 672.75
  L 410.03 677.96
  L 410.13 709.25
  L 410.37 728.47
  L 409.98 732.90
  L 409.60 733.66
  L 408.81 733.97
  L 396.71 733.97
  L 396.19 733.75
  L 395.97 733.23
  L 395.91 699.19
  L 395.84 698.54
  L 395.64 698.26
  L 395.64 698.26
  L 395.64 698.26
  L 395.29 698.34
  L 394.79 698.81
  L 394.42 699.64
  L 390.88 709.46
  L 382.33 732.57
  L 381.55 733.59
  L 380.33 734.00
  L 368.89 734.32
  L 367.80 730.38
  L 358.09 704.48
  L 357.64 702.76
  L 357.33 702.30
  L 356.98 702.10
  L 356.92 702.09
  L 356.53 701.12
  L 356.75 700.54
  L 356.55 700.25
  L 356.13 700.20
  L 355.83 700.53
  L 356.11 701.01
  L 355.58 734.34
  L 341.52 734.37
  L 341.02 732.02
  L 340.85 730.11
  L 341.04 672.55
  L 341.19 672.14
  L 341.58 672.01
  L 359.90 672.01
  L 360.63 672.37
  L 361.02 672.99
  L 361.11 673.50
  Z"
/>
<path fill="#689e7f" d="
  M 409.01 672.15
  L 404.50 672.73
  L 402.38 672.84
  L 400.00 672.71
  L 395.67 672.49
  L 391.43 672.65
  L 390.56 672.99
  L 390.00 673.75
  L 376.79 709.71
  L 376.25 710.81
  L 375.71 711.18
  L 375.71 711.18
  L 375.16 710.81
  L 374.61 709.71
  L 361.11 673.50
  L 361.53 674.26
  L 363.04 677.30
  L 364.32 680.45
  L 371.61 700.56
  L 373.30 705.23
  L 375.06 709.02
  L 375.54 709.72
  L 375.95 709.91
  L 375.95 709.91
  L 376.29 709.62
  L 376.57 708.82
  L 378.52 703.04
  L 389.39 673.79
  L 389.79 673.02
  L 390.34 672.47
  L 391.04 672.15
  L 391.90 672.05
  L 409.01 672.15
  Z"
/>
<path fill="#689e7f" d="
  M 436.45 672.79
  L 436.03 672.64
  L 435.68 672.55
  L 435.31 672.51
  L 423.64 672.33
  L 430.20 671.96
  L 436.26 672.32
  L 436.43 672.40
  L 436.45 672.79
  Z"
/>
<path fill="#000000" d="
  M 471.62 673.19
  L 471.24 677.18
  L 471.12 681.00
  L 471.09 714.50
  L 471.02 717.93
  L 471.01 718.06
  L 471.01 718.06
  L 470.76 719.62
  L 470.16 721.17
  L 467.40 727.24
  L 464.88 729.83
  L 462.07 731.97
  L 462.07 731.97
  L 459.52 733.39
  L 456.78 734.50
  L 452.53 735.01
  L 448.26 735.32
  L 448.26 735.32
  L 448.26 735.32
  L 443.91 735.42
  L 439.54 735.31
  L 438.42 735.28
  L 437.82 734.88
  L 431.72 732.48
  L 425.42 726.99
  L 423.94 723.65
  L 422.69 720.25
  L 421.96 716.92
  L 421.77 713.11
  L 422.01 692.84
  L 421.81 672.52
  L 422.99 672.28
  L 423.64 672.33
  L 435.31 672.51
  L 435.68 672.55
  L 436.03 672.64
  L 436.45 672.79
  L 436.52 672.98
  L 436.75 674.27
  L 436.21 692.67
  L 436.36 712.50
  L 436.50 714.17
  L 436.84 715.70
  L 437.37 717.09
  L 438.11 718.33
  L 438.74 719.11
  L 439.85 720.30
  L 441.02 721.25
  L 442.26 721.98
  L 443.56 722.47
  L 443.56 722.47
  L 443.56 722.47
  L 443.56 722.47
  L 445.11 722.75
  L 446.75 722.74
  L 448.47 722.43
  L 450.28 721.82
  L 454.35 719.68
  L 455.76 715.60
  L 456.70 711.24
  L 457.19 706.59
  L 457.21 701.66
  L 456.92 694.33
  L 456.31 672.59
  L 459.82 672.13
  L 463.43 671.94
  L 467.14 672.00
  L 470.95 672.32
  L 471.51 672.53
  L 471.80 672.97
  L 471.62 673.19
  Z"
/>
<path fill="#689e7f" d="
  M 554.79 672.11
  L 553.99 672.56
  L 553.01 672.81
  L 553.12 672.36
  L 553.71 672.06
  L 554.79 672.11
  Z"
/>
<path fill="#000000" d="
  M 600.99 724.02
  L 594.58 731.23
  L 591.41 733.40
  L 589.74 734.19
  L 588.02 734.79
  L 588.02 734.79
  L 585.34 735.33
  L 581.27 735.59
  L 577.48 735.63
  L 573.97 735.43
  L 570.75 735.01
  L 568.21 734.42
  L 565.79 733.54
  L 565.79 733.54
  L 563.32 732.27
  L 560.99 730.67
  L 558.80 728.75
  L 556.76 726.49
  L 555.54 724.03
  L 554.50 721.39
  L 553.64 718.58
  L 552.96 715.60
  L 553.01 672.81
  L 553.99 672.56
  L 554.79 672.11
  L 567.43 672.23
  L 567.82 672.36
  L 567.96 672.75
  L 568.02 709.99
  L 568.15 713.14
  L 568.64 715.69
  L 569.49 717.72
  L 570.72 719.30
  L 570.85 719.43
  L 572.64 720.78
  L 574.58 721.67
  L 574.58 721.67
  L 574.58 721.67
  L 576.36 722.06
  L 578.24 722.13
  L 580.23 721.86
  L 582.33 721.25
  L 583.49 720.73
  L 584.48 720.06
  L 585.93 718.46
  L 586.98 716.32
  L 587.63 713.58
  L 587.88 710.27
  L 588.02 672.53
  L 588.17 672.16
  L 588.54 672.01
  L 602.21 672.01
  L 602.74 672.23
  L 602.96 672.75
  L 602.96 672.75
  L 603.14 712.25
  L 603.01 715.96
  L 602.60 719.27
  L 601.93 721.92
  L 600.99 724.02
  Z"
/>
<path fill="#689e7f" d="
  M 629.34 712.11
  L 629.25 674.27
  L 629.14 673.55
  L 628.83 673.04
  L 628.83 673.04
  L 628.32 672.72
  L 627.60 672.61
  L 614.15 672.49
  L 618.09 672.04
  L 621.95 671.92
  L 625.73 672.14
  L 629.43 672.69
  L 629.74 672.87
  L 629.87 673.20
  L 630.10 683.06
  L 630.09 692.83
  L 629.83 702.52
  L 629.34 712.11
  Z"
/>
<path fill="#689e7f" d="
  M 683.09 672.75
  L 640.21 672.58
  L 639.66 672.69
  L 639.18 673.00
  L 638.87 673.46
  L 638.75 674.01
  L 638.56 685.00
  L 637.97 679.51
  L 638.12 674.09
  L 638.16 673.67
  L 638.35 673.03
  L 638.75 672.50
  L 639.32 672.15
  L 639.98 672.03
  L 680.75 671.98
  L 682.31 672.17
  L 683.09 672.75
  Z"
/>
<path fill="#689e7f" d="
  M 421.81 672.52
  L 422.01 692.84
  L 421.77 713.11
  L 421.96 716.92
  L 422.69 720.25
  L 423.94 723.65
  L 425.42 726.99
  L 423.23 723.24
  L 421.80 719.29
  L 421.80 719.29
  L 421.30 716.75
  L 421.08 714.14
  L 420.91 699.54
  L 421.01 677.50
  L 421.23 674.48
  L 421.81 672.52
  Z"
/>
<path fill="#000000" d="
  M 629.34 712.11
  L 629.01 734.43
  L 614.14 734.34
  L 614.15 672.49
  L 627.60 672.61
  L 628.32 672.72
  L 628.83 673.04
  L 629.14 673.55
  L 629.25 674.27
  L 629.34 712.11
  Z"
/>
<path fill="#000000" d="
  M 683.09 672.75
  L 683.14 673.56
  L 683.30 677.84
  L 683.07 681.00
  L 682.43 683.52
  L 681.32 685.53
  L 675.05 694.46
  L 670.98 700.06
  L 663.46 710.29
  L 656.28 720.75
  L 656.25 720.84
  L 656.46 721.04
  L 656.28 721.50
  L 656.26 721.94
  L 656.68 722.09
  L 681.80 722.09
  L 682.41 722.18
  L 682.84 722.44
  L 682.84 722.44
  L 683.09 722.88
  L 683.16 723.49
  L 682.85 733.79
  L 638.75 734.08
  L 637.97 733.77
  L 637.62 733.01
  L 637.22 725.50
  L 637.28 724.07
  L 637.63 722.91
  L 650.83 703.82
  L 656.13 696.01
  L 662.67 686.84
  L 662.82 686.54
  L 662.88 686.19
  L 662.88 685.81
  L 662.92 685.49
  L 662.80 685.27
  L 662.52 685.12
  L 662.22 685.23
  L 662.01 685.39
  L 661.85 685.48
  L 661.64 685.51
  L 658.97 685.27
  L 653.13 684.93
  L 652.83 684.93
  L 638.56 685.00
  L 638.75 674.01
  L 638.87 673.46
  L 639.18 673.00
  L 639.66 672.69
  L 640.21 672.58
  L 683.09 672.75
  Z"
/>
<path fill="#689e7f" d="
  M 499.97 672.70
  L 492.21 677.41
  L 494.13 675.80
  L 496.90 674.05
  L 499.97 672.70
  Z"
/>
<path fill="#689e7f" d="
  M 454.35 719.68
  L 455.03 717.28
  L 455.50 714.70
  L 455.77 711.94
  L 455.84 709.00
  L 455.87 692.47
  L 456.31 672.59
  L 456.92 694.33
  L 457.21 701.66
  L 457.19 706.59
  L 456.70 711.24
  L 455.76 715.60
  L 454.35 719.68
  Z"
/>
<path fill="#689e7f" d="
  M 471.62 673.19
  L 471.87 673.75
  L 471.98 674.50
  L 471.95 713.25
  L 471.71 716.89
  L 471.03 720.22
  L 469.92 723.25
  L 468.36 725.98
  L 468.36 725.98
  L 467.40 727.24
  L 470.16 721.17
  L 470.76 719.62
  L 471.01 718.06
  L 471.01 718.06
  L 471.02 717.93
  L 471.09 714.50
  L 471.12 681.00
  L 471.24 677.18
  L 471.62 673.19
  Z"
/>
<path fill="#689e7f" d="
  M 436.75 674.27
  L 437.05 693.39
  L 436.91 712.50
  L 437.04 714.46
  L 437.04 714.46
  L 437.64 716.82
  L 438.74 719.11
  L 438.11 718.33
  L 438.11 718.33
  L 438.11 718.33
  L 437.37 717.09
  L 436.84 715.70
  L 436.50 714.17
  L 436.36 712.50
  L 436.21 692.67
  L 436.75 674.27
  Z"
/>
<path fill="#689e7f" d="
  M 542.98 693.71
  L 541.87 690.76
  L 540.56 687.96
  L 539.04 685.33
  L 537.30 682.86
  L 537.30 682.86
  L 537.30 682.86
  L 537.30 682.86
  L 535.61 680.82
  L 533.75 678.90
  L 529.56 675.44
  L 531.97 676.96
  L 534.15 678.65
  L 536.12 680.51
  L 537.86 682.54
  L 537.86 682.54
  L 537.86 682.54
  L 537.86 682.54
  L 539.55 685.01
  L 540.97 687.70
  L 542.11 690.60
  L 542.98 693.71
  Z"
/>
<path fill="#689e7f" d="
  M 487.06 682.20
  L 484.69 686.72
  L 482.74 690.83
  L 481.36 695.03
  L 480.61 699.06
  L 480.52 702.77
  L 480.68 708.77
  L 480.20 704.79
  L 480.15 700.92
  L 480.51 697.17
  L 481.30 693.55
  L 481.30 693.55
  L 481.30 693.55
  L 482.29 690.58
  L 483.58 687.71
  L 485.17 684.91
  L 487.06 682.20
  Z"
/>
<path fill="#689e7f" d="
  M 509.07 685.32
  L 506.84 686.05
  L 504.80 686.98
  L 502.93 688.11
  L 501.24 689.44
  L 501.24 689.44
  L 499.11 691.75
  L 497.36 694.48
  L 498.27 692.53
  L 499.41 690.74
  L 499.41 690.74
  L 499.41 690.74
  L 501.02 688.86
  L 502.95 687.20
  L 504.32 686.34
  L 505.78 685.74
  L 505.78 685.74
  L 507.38 685.39
  L 509.07 685.32
  Z"
/>
<path fill="#689e7f" d="
  M 681.32 685.53
  L 675.05 694.46
  L 681.32 685.53
  Z"
/>
<path fill="#689e7f" d="
  M 662.88 685.81
  L 662.88 686.19
  L 662.82 686.54
  L 662.67 686.84
  L 656.13 696.01
  L 662.88 685.81
  Z"
/>
<path fill="#689e7f" d="
  M 528.53 699.23
  L 527.57 696.12
  L 526.17 693.26
  L 526.17 693.26
  L 526.17 693.26
  L 524.40 690.73
  L 522.22 688.44
  L 523.95 689.75
  L 525.40 691.19
  L 526.58 692.74
  L 527.48 694.42
  L 527.48 694.42
  L 527.48 694.42
  L 528.23 696.73
  L 528.53 699.23
  Z"
/>
<path fill="#689e7f" d="
  M 496.79 696.29
  L 496.16 698.82
  L 495.81 701.31
  L 495.72 703.77
  L 495.91 706.19
  L 495.91 706.19
  L 496.59 709.44
  L 497.78 712.62
  L 497.63 712.67
  L 497.34 712.38
  L 496.21 709.56
  L 495.49 706.67
  L 495.49 706.67
  L 495.49 706.67
  L 495.21 704.29
  L 495.21 701.85
  L 495.48 699.38
  L 496.02 696.85
  L 496.27 696.41
  L 496.52 696.29
  L 496.79 696.29
  Z"
/>
<path fill="#689e7f" d="
  M 410.37 728.47
  L 410.85 730.72
  L 410.79 732.88
  L 410.35 734.56
  L 410.10 734.88
  L 409.72 735.00
  L 396.59 735.00
  L 395.99 734.82
  L 395.58 734.35
  L 394.96 732.43
  L 394.77 730.25
  L 394.96 704.07
  L 394.83 701.89
  L 394.42 699.64
  L 394.79 698.81
  L 395.29 698.34
  L 395.64 698.26
  L 395.64 698.26
  L 395.84 698.54
  L 395.91 699.19
  L 395.97 733.23
  L 396.19 733.75
  L 396.71 733.97
  L 408.81 733.97
  L 409.60 733.66
  L 409.98 732.90
  L 410.37 728.47
  Z"
/>
<path fill="#689e7f" d="
  M 670.98 700.06
  L 656.46 721.04
  L 656.25 720.84
  L 656.28 720.75
  L 663.46 710.29
  L 670.98 700.06
  Z"
/>
<path fill="#689e7f" d="
  M 356.53 701.12
  L 356.11 701.01
  L 355.83 700.53
  L 356.13 700.20
  L 356.55 700.25
  L 356.75 700.54
  L 356.53 701.12
  Z"
/>
<path fill="#689e7f" d="
  M 358.09 704.48
  L 357.31 703.72
  L 357.00 702.98
  L 356.92 702.09
  L 356.98 702.10
  L 357.33 702.30
  L 357.64 702.76
  L 358.09 704.48
  Z"
/>
<path fill="#689e7f" d="
  M 637.63 722.91
  L 650.83 703.82
  L 637.63 722.91
  Z"
/>
<path fill="#689e7f" d="
  M 367.80 730.38
  L 362.81 717.97
  L 358.08 705.48
  L 358.09 704.48
  L 367.80 730.38
  Z"
/>
<path fill="#689e7f" d="
  M 492.55 729.33
  L 488.96 726.14
  L 485.97 722.54
  L 485.97 722.54
  L 485.97 722.54
  L 484.13 719.60
  L 482.62 716.43
  L 481.43 713.03
  L 480.57 709.40
  L 480.58 709.40
  L 480.82 709.39
  L 480.97 709.38
  L 481.05 709.51
  L 482.01 713.29
  L 483.37 716.89
  L 483.37 716.89
  L 485.09 720.26
  L 487.19 723.45
  L 489.68 726.48
  L 492.55 729.33
  Z"
/>
<path fill="#689e7f" d="
  M 390.88 709.46
  L 381.99 734.15
  L 381.57 734.74
  L 380.90 735.01
  L 377.83 735.22
  L 374.82 735.19
  L 371.87 734.89
  L 368.98 734.34
  L 368.89 734.32
  L 380.33 734.00
  L 381.55 733.59
  L 382.33 732.57
  L 390.88 709.46
  Z"
/>
<path fill="#689e7f" d="
  M 543.68 709.45
  L 543.43 711.85
  L 542.96 714.14
  L 542.27 716.33
  L 541.37 718.40
  L 541.37 718.40
  L 539.50 721.44
  L 537.09 724.21
  L 538.99 721.20
  L 540.62 718.11
  L 541.99 714.95
  L 543.09 711.70
  L 543.09 711.70
  L 543.09 711.70
  L 543.68 709.45
  Z"
/>
<path fill="#689e7f" d="
  M 506.88 720.60
  L 503.87 719.42
  L 501.34 717.68
  L 499.32 715.42
  L 497.78 712.62
  L 499.97 715.50
  L 502.53 717.92
  L 502.53 717.92
  L 504.61 719.38
  L 506.88 720.60
  Z"
/>
<path fill="#689e7f" d="
  M 556.76 726.49
  L 555.52 724.87
  L 554.53 723.12
  L 554.53 723.12
  L 554.53 723.12
  L 553.82 721.40
  L 553.32 719.57
  L 553.04 717.63
  L 552.96 715.60
  L 553.64 718.58
  L 554.50 721.39
  L 555.54 724.03
  L 556.76 726.49
  Z"
/>
<path fill="#689e7f" d="
  M 450.28 721.82
  L 448.47 722.43
  L 446.75 722.74
  L 445.11 722.75
  L 443.56 722.47
  L 442.26 721.98
  L 441.02 721.25
  L 439.85 720.30
  L 438.74 719.11
  L 440.97 720.58
  L 443.35 721.56
  L 443.35 721.56
  L 444.99 721.94
  L 446.69 722.11
  L 448.45 722.07
  L 450.28 721.82
  Z"
/>
<path fill="#689e7f" d="
  M 519.19 720.07
  L 516.52 721.29
  L 513.83 721.76
  L 513.83 721.76
  L 512.01 721.66
  L 510.18 721.22
  L 519.19 720.07
  Z"
/>
<path fill="#689e7f" d="
  M 600.99 724.02
  L 599.72 726.45
  L 598.08 728.54
  L 598.08 728.54
  L 598.08 728.54
  L 596.45 730.00
  L 594.58 731.23
  L 600.99 724.02
  Z"
/>
<path fill="#689e7f" d="
  M 637.22 725.50
  L 637.62 733.01
  L 637.97 733.77
  L 638.75 734.08
  L 682.85 733.79
  L 682.80 734.60
  L 682.21 734.97
  L 640.26 734.97
  L 638.81 734.80
  L 637.57 734.32
  L 637.22 734.00
  L 637.05 733.55
  L 636.82 730.91
  L 636.87 728.29
  L 637.22 725.50
  Z"
/>
<path fill="#689e7f" d="
  M 585.34 735.33
  L 580.99 735.92
  L 576.56 736.06
  L 572.38 735.74
  L 568.49 734.96
  L 565.09 733.78
  L 562.15 732.22
  L 559.62 730.23
  L 557.63 727.91
  L 556.76 726.49
  L 558.80 728.75
  L 560.99 730.67
  L 563.32 732.27
  L 565.79 733.54
  L 565.79 733.54
  L 568.21 734.42
  L 570.75 735.01
  L 573.97 735.43
  L 577.48 735.63
  L 581.27 735.59
  L 585.34 735.33
  Z"
/>
<path fill="#689e7f" d="
  M 437.82 734.88
  L 436.05 734.61
  L 434.39 734.08
  L 434.39 734.08
  L 433.01 733.38
  L 431.72 732.48
  L 437.82 734.88
  Z"
/>
<path fill="#689e7f" d="
  M 524.78 733.51
  L 527.04 737.17
  L 526.20 736.69
  L 525.42 735.92
  L 524.80 734.92
  L 524.52 734.10
  L 524.61 733.62
  L 524.61 733.62
  L 524.78 733.51
  Z"
/>
<path fill="#689e7f" d="
  M 355.58 734.34
  L 351.93 734.96
  L 348.28 735.15
  L 348.28 735.15
  L 344.90 734.94
  L 341.52 734.37
  L 355.58 734.34
  Z"
/>
<path fill="#689e7f" d="
  M 629.01 734.43
  L 623.64 735.07
  L 618.34 734.97
  L 618.34 734.97
  L 614.14 734.34
  L 629.01 734.43
  Z"
/>
<path fill="#689e7f" d="
  M 456.78 734.50
  L 452.63 735.58
  L 448.44 736.10
  L 448.44 736.10
  L 448.44 736.10
  L 444.01 736.02
  L 439.54 735.31
  L 443.91 735.42
  L 448.26 735.32
  L 448.26 735.32
  L 448.26 735.32
  L 452.53 735.01
  L 456.78 734.50
  Z"
/>
<path fill="#689e7f" d="
  M 509.80 736.34
  L 505.04 735.17
  L 506.47 735.08
  L 507.84 735.23
  L 509.29 735.69
  L 509.62 735.94
  L 509.80 736.34
  Z"
/>
<path fill="#689e7f" d="
  M 522.06 751.02
  L 520.05 749.85
  L 518.19 748.50
  L 518.19 748.50
  L 518.19 748.50
  L 515.64 746.13
  L 513.42 743.36
  L 511.51 740.19
  L 509.93 736.62
  L 510.46 736.95
  L 510.58 737.15
  L 511.80 739.66
  L 513.18 742.02
  L 514.74 744.21
  L 516.47 746.25
  L 516.47 746.25
  L 516.47 746.25
  L 516.47 746.25
  L 519.11 748.78
  L 522.06 751.02
  Z"
/>
<path fill="#689e7f" d="
  M 526.21 752.88
  L 537.85 753.19
  L 538.36 753.10
  L 538.80 752.82
  L 539.10 752.40
  L 539.21 751.89
  L 539.21 751.88
  L 539.30 740.94
  L 539.85 743.55
  L 540.14 746.24
  L 540.17 749.00
  L 539.93 751.83
  L 539.66 752.81
  L 539.15 753.40
  L 538.33 753.74
  L 537.26 753.92
  L 534.07 754.07
  L 531.17 753.94
  L 528.55 753.55
  L 526.21 752.88
  Z"
/>
</svg>
